<?xml version="1.0" encoding="utf-8"?>
<!-- Generator: Adobe Illustrator 22.1.0, SVG Export Plug-In . SVG Version: 6.00 Build 0)  -->
<svg version="1.1" id="Calque_1" xmlns="http://www.w3.org/2000/svg" xmlns:xlink="http://www.w3.org/1999/xlink" x="0px" y="0px"
	 viewBox="0 0 600 600" style="enable-background:new 0 0 600 600;" xml:space="preserve">
<g>
	<path d="M291.5,327.8c-2.8,0-5-2.2-5-5v-149c0-2.8,2.2-5,5-5s5,2.2,5,5v149C296.5,325.5,294.2,327.8,291.5,327.8z"/>
</g>
<g>
	<path d="M291.5,394.2c-2.8,0-5-2.2-5-5v-149c0-2.8,2.2-5,5-5s5,2.2,5,5v149C296.5,392,294.2,394.2,291.5,394.2z"/>
</g>
<g>
	<path d="M291.5,394.2c-0.8,0-1.7-0.2-2.5-0.7l-129-74.5c-2.4-1.4-3.2-4.4-1.8-6.8c1.4-2.4,4.4-3.2,6.8-1.8l129,74.5
		c2.4,1.4,3.2,4.4,1.8,6.8C294.9,393.3,293.2,394.2,291.5,394.2z"/>
</g>
<g>
	<path d="M291.5,394.2c-1.7,0-3.4-0.9-4.3-2.5c-1.4-2.4-0.6-5.4,1.8-6.8l129-74.5c2.4-1.4,5.5-0.6,6.8,1.8c1.4,2.4,0.6,5.4-1.8,6.8
		l-129,74.5C293.2,394,292.3,394.2,291.5,394.2z"/>
</g>
</svg>
