<?xml version="1.0" encoding="utf-8"?>
<!-- Generator: Adobe Illustrator 22.1.0, SVG Export Plug-In . SVG Version: 6.00 Build 0)  -->
<svg version="1.1" id="Calque_1" xmlns="http://www.w3.org/2000/svg" xmlns:xlink="http://www.w3.org/1999/xlink" x="0px" y="0px"
	 viewBox="0 0 519.6 600" style="enable-background:new 0 0 519.6 600;" xml:space="preserve">
<g>
	<path d="M259.7-0.1L0,149.9v300l259.8,150l259.8-150v-300L259.7-0.1z M506.3,442.2L259.7,584.5L13.3,442.2V157.5L259.7,15.3
		l246.5,142.3V442.2z"/>
	<path d="M262,287.1l-2.2,1.2l-2.2-1.2l0,0l0,0L74.8,181.6c-4.8-2.7-10.9-1.1-13.6,3.7c-2.7,4.8-1.1,10.9,3.7,13.6l172.8,99.8
		L64.8,398.3c-4.8,2.7-6.4,8.8-3.7,13.6c1.9,3.2,5.2,5,8.7,5c1.7,0,3.4-0.5,5-1.3l185-106.8l185,106.8c4.8,2.7,10.9,1.1,13.6-3.7
		c2.7-4.8,1.1-10.9-3.7-13.6l-172.8-99.8l172.8-99.8c4.8-2.7,6.4-8.8,3.7-13.6c-2.7-4.8-8.8-6.4-13.6-3.7L262,287.1L262,287.1
		L262,287.1z"/>
</g>
</svg>
