<svg xmlns="http://www.w3.org/2000/svg" viewBox="0 0 341 394.4"><path d="M171.1 11l161.5 93.2v186.5L171.1 384 9.6 290.7V104.3L171.1 11m0-10.4L.6 99.1V296l170.5 98.4L341.6 296V99.1L171.1.6z"/><path d="M289.4 277.2H167.5V111.7h121.9v165.5zm-114.9-7h107.9V118.7H174.5v151.5z"/><path d="M174.6 277.2H52.7V111.7h121.9v165.5zm-114.9-7h107.9V118.7H59.7v151.5zM231.2 170.6h-50.4V126h50.4v44.6zm-43.4-7h36.4V133h-36.4v30.6zM235.7 141.4h40.5v7h-40.5zM235.8 163.6h40.5v7h-40.5zM184.3 185.9h92.1v7h-92.1zM184.3 208.2h92.1v7h-92.1zM184.3 230.4h92.1v7h-92.1zM184.3 252.7h92.1v7h-92.1z"/><path d="M67.6 141.4h41.3v7H67.6zM118.896 141.426l40.7-.051.009 7-40.7.05zM67.7 163.6H109v7H67.7zM119.096 163.626l40.7-.051.009 7-40.7.05zM67.6 185.9H109v7H67.6zM118.996 185.926l40.8-.051.009 7-40.8.05z"/><g><path d="M67.6 208.2H109v7H67.6zM119.096 208.124l40.8-.048.008 7-40.8.048z"/></g><g><path d="M67.6 230.4H109v7H67.6zM119.096 230.423l40.8-.046.008 7-40.8.046z"/></g><g><path d="M67.6 252.7H109v7H67.6zM119.096 252.726l40.8-.051.008 7-40.8.05z"/></g></svg>