<?xml version="1.0" encoding="utf-8"?>
<!-- Generator: Adobe Illustrator 22.1.0, SVG Export Plug-In . SVG Version: 6.00 Build 0)  -->
<svg version="1.1" id="Calque_1" xmlns="http://www.w3.org/2000/svg" xmlns:xlink="http://www.w3.org/1999/xlink" x="0px" y="0px"
	 viewBox="0 0 341 394.4" style="enable-background:new 0 0 341 394.4;" xml:space="preserve">
<style type="text/css">
	.st0{fill:url(#SVGID_1_);}
	.st1{fill:url(#SVGID_2_);}
	.st2{fill:url(#SVGID_3_);}
	.st3{fill:url(#SVGID_4_);}
	.st4{fill:url(#SVGID_5_);}
	.st5{fill:url(#SVGID_6_);}
	.st6{fill:url(#SVGID_7_);}
	.st7{fill:url(#SVGID_8_);}
	.st8{fill:url(#SVGID_9_);}
	.st9{fill:url(#SVGID_10_);}
	.st10{fill:url(#SVGID_11_);}
	.st11{fill:url(#SVGID_12_);}
	.st12{fill:url(#SVGID_13_);}
	.st13{fill:url(#SVGID_14_);}
	.st14{fill:url(#SVGID_15_);}
	.st15{fill:url(#SVGID_16_);}
	.st16{fill:url(#SVGID_17_);}
	.st17{fill:url(#SVGID_18_);}
	.st18{fill:url(#SVGID_19_);}
	.st19{fill:url(#SVGID_20_);}
	.st20{fill:url(#SVGID_21_);}
	.st21{fill:url(#SVGID_22_);}
</style>
<g>
	<g>
		<linearGradient id="SVGID_1_" gradientUnits="userSpaceOnUse" x1="49.775" y1="76.225" x2="300.783" y2="327.233">
			<stop  offset="0" style="stop-color:#8670CC"/>
			<stop  offset="0.9876" style="stop-color:#FF5E81"/>
		</linearGradient>
		<path class="st0" d="M171.1,11l161.5,93.2v186.5L171.1,384L9.6,290.7V104.3L171.1,11 M171.1,0.6L0.6,99.1V296l170.5,98.4
			L341.6,296V99.1L171.1,0.6L171.1,0.6z"/>
	</g>
	<g>
		<linearGradient id="SVGID_2_" gradientUnits="userSpaceOnUse" x1="80" y1="46" x2="331.008" y2="297.008">
			<stop  offset="0" style="stop-color:#8670CC"/>
			<stop  offset="0.9876" style="stop-color:#FF5E81"/>
		</linearGradient>
		<path class="st1" d="M289.4,277.2H167.5V111.7h121.9V277.2z M174.5,270.2h107.9V118.7H174.5V270.2z"/>
	</g>
	<g>
		<linearGradient id="SVGID_3_" gradientUnits="userSpaceOnUse" x1="22.6" y1="103.4" x2="273.608" y2="354.408">
			<stop  offset="0" style="stop-color:#8670CC"/>
			<stop  offset="0.9876" style="stop-color:#FF5E81"/>
		</linearGradient>
		<path class="st2" d="M174.6,277.2H52.7V111.7h121.9V277.2z M59.7,270.2h107.9V118.7H59.7V270.2z"/>
	</g>
	<g>
		<linearGradient id="SVGID_4_" gradientUnits="userSpaceOnUse" x1="91.85" y1="34.15" x2="342.858" y2="285.158">
			<stop  offset="0" style="stop-color:#8670CC"/>
			<stop  offset="0.9876" style="stop-color:#FF5E81"/>
		</linearGradient>
		<path class="st3" d="M231.2,170.6h-50.4V126h50.4L231.2,170.6L231.2,170.6z M187.8,163.6h36.4V133h-36.4L187.8,163.6L187.8,163.6z
			"/>
	</g>
	<g>
		<linearGradient id="SVGID_5_" gradientUnits="userSpaceOnUse" x1="118.525" y1="7.475" x2="369.533" y2="258.483">
			<stop  offset="0" style="stop-color:#8670CC"/>
			<stop  offset="0.9876" style="stop-color:#FF5E81"/>
		</linearGradient>
		<rect x="235.7" y="141.4" class="st4" width="40.5" height="7"/>
	</g>
	<g>
		<linearGradient id="SVGID_6_" gradientUnits="userSpaceOnUse" x1="107.475" y1="18.525" x2="358.483" y2="269.533">
			<stop  offset="0" style="stop-color:#8670CC"/>
			<stop  offset="0.9876" style="stop-color:#FF5E81"/>
		</linearGradient>
		<rect x="235.8" y="163.6" class="st5" width="40.5" height="7"/>
	</g>
	<g>
		<linearGradient id="SVGID_7_" gradientUnits="userSpaceOnUse" x1="83.475" y1="42.525" x2="334.483" y2="293.533">
			<stop  offset="0" style="stop-color:#8670CC"/>
			<stop  offset="0.9876" style="stop-color:#FF5E81"/>
		</linearGradient>
		<rect x="184.3" y="185.9" class="st6" width="92.1" height="7"/>
	</g>
	<g>
		<linearGradient id="SVGID_8_" gradientUnits="userSpaceOnUse" x1="72.325" y1="53.675" x2="323.333" y2="304.683">
			<stop  offset="0" style="stop-color:#8670CC"/>
			<stop  offset="0.9876" style="stop-color:#FF5E81"/>
		</linearGradient>
		<rect x="184.3" y="208.2" class="st7" width="92.1" height="7"/>
	</g>
	<g>
		<linearGradient id="SVGID_9_" gradientUnits="userSpaceOnUse" x1="61.225" y1="64.775" x2="312.233" y2="315.783">
			<stop  offset="0" style="stop-color:#8670CC"/>
			<stop  offset="0.9876" style="stop-color:#FF5E81"/>
		</linearGradient>
		<rect x="184.3" y="230.4" class="st8" width="92.1" height="7"/>
	</g>
	<g>
		<linearGradient id="SVGID_10_" gradientUnits="userSpaceOnUse" x1="50.075" y1="75.925" x2="301.083" y2="326.933">
			<stop  offset="0" style="stop-color:#8670CC"/>
			<stop  offset="0.9876" style="stop-color:#FF5E81"/>
		</linearGradient>
		<rect x="184.3" y="252.7" class="st9" width="92.1" height="7"/>
	</g>
	<g>
		<g>
			<linearGradient id="SVGID_11_" gradientUnits="userSpaceOnUse" x1="34.675" y1="91.325" x2="285.683" y2="342.333">
				<stop  offset="0" style="stop-color:#8670CC"/>
				<stop  offset="0.9876" style="stop-color:#FF5E81"/>
			</linearGradient>
			<rect x="67.6" y="141.4" class="st10" width="41.3" height="7"/>
		</g>
		<g>
			<linearGradient id="SVGID_12_" gradientUnits="userSpaceOnUse" x1="60.175" y1="65.825" x2="311.183" y2="316.833">
				<stop  offset="0" style="stop-color:#8670CC"/>
				<stop  offset="0.9876" style="stop-color:#FF5E81"/>
			</linearGradient>
			<polygon class="st11" points="118.9,141.4 159.6,141.4 159.6,148.4 118.9,148.4 			"/>
		</g>
	</g>
	<g>
		<g>
			<linearGradient id="SVGID_13_" gradientUnits="userSpaceOnUse" x1="23.625" y1="102.375" x2="274.633" y2="353.383">
				<stop  offset="0" style="stop-color:#8670CC"/>
				<stop  offset="0.9876" style="stop-color:#FF5E81"/>
			</linearGradient>
			<rect x="67.7" y="163.6" class="st12" width="41.3" height="7"/>
		</g>
		<g>
			<linearGradient id="SVGID_14_" gradientUnits="userSpaceOnUse" x1="49.175" y1="76.825" x2="300.183" y2="327.833">
				<stop  offset="0" style="stop-color:#8670CC"/>
				<stop  offset="0.9876" style="stop-color:#FF5E81"/>
			</linearGradient>
			<polygon class="st13" points="119.1,163.6 159.8,163.6 159.8,170.6 119.1,170.6 			"/>
		</g>
	</g>
	<g>
		<g>
			<linearGradient id="SVGID_15_" gradientUnits="userSpaceOnUse" x1="12.45" y1="113.55" x2="263.458" y2="364.558">
				<stop  offset="0" style="stop-color:#8670CC"/>
				<stop  offset="0.9876" style="stop-color:#FF5E81"/>
			</linearGradient>
			<rect x="67.6" y="185.9" class="st14" width="41.4" height="7"/>
		</g>
		<g>
			<linearGradient id="SVGID_16_" gradientUnits="userSpaceOnUse" x1="38" y1="88" x2="289.0079" y2="339.008">
				<stop  offset="0" style="stop-color:#8670CC"/>
				<stop  offset="0.9876" style="stop-color:#FF5E81"/>
			</linearGradient>
			<polygon class="st15" points="119,185.9 159.8,185.9 159.8,192.9 119,192.9 			"/>
		</g>
	</g>
	<g>
		<g>
			<linearGradient id="SVGID_17_" gradientUnits="userSpaceOnUse" x1="1.3" y1="124.7" x2="252.308" y2="375.708">
				<stop  offset="0" style="stop-color:#8670CC"/>
				<stop  offset="0.9876" style="stop-color:#FF5E81"/>
			</linearGradient>
			<rect x="67.6" y="208.2" class="st16" width="41.4" height="7"/>
		</g>
		<g>
			<linearGradient id="SVGID_18_" gradientUnits="userSpaceOnUse" x1="26.95" y1="99.05" x2="277.9579" y2="350.058">
				<stop  offset="0" style="stop-color:#8670CC"/>
				<stop  offset="0.9876" style="stop-color:#FF5E81"/>
			</linearGradient>
			<polygon class="st17" points="119.1,208.1 159.9,208.1 159.9,215.1 119.1,215.1 			"/>
		</g>
	</g>
	<g>
		<g>
			<linearGradient id="SVGID_19_" gradientUnits="userSpaceOnUse" x1="-9.8" y1="135.8" x2="241.208" y2="386.808">
				<stop  offset="0" style="stop-color:#8670CC"/>
				<stop  offset="0.9876" style="stop-color:#FF5E81"/>
			</linearGradient>
			<rect x="67.6" y="230.4" class="st18" width="41.4" height="7"/>
		</g>
		<g>
			<linearGradient id="SVGID_20_" gradientUnits="userSpaceOnUse" x1="15.8" y1="110.2" x2="266.808" y2="361.208">
				<stop  offset="0" style="stop-color:#8670CC"/>
				<stop  offset="0.9876" style="stop-color:#FF5E81"/>
			</linearGradient>
			<polygon class="st19" points="119.1,230.4 159.9,230.4 159.9,237.4 119.1,237.4 			"/>
		</g>
	</g>
	<g>
		<g>
			<linearGradient id="SVGID_21_" gradientUnits="userSpaceOnUse" x1="-20.95" y1="146.95" x2="230.058" y2="397.958">
				<stop  offset="0" style="stop-color:#8670CC"/>
				<stop  offset="0.9876" style="stop-color:#FF5E81"/>
			</linearGradient>
			<rect x="67.6" y="252.7" class="st20" width="41.4" height="7"/>
		</g>
		<g>
			<linearGradient id="SVGID_22_" gradientUnits="userSpaceOnUse" x1="4.6499" y1="121.3501" x2="255.6579" y2="372.3581">
				<stop  offset="0" style="stop-color:#8670CC"/>
				<stop  offset="0.9876" style="stop-color:#FF5E81"/>
			</linearGradient>
			<polygon class="st21" points="119.1,252.7 159.9,252.7 159.9,259.7 119.1,259.7 			"/>
		</g>
	</g>
</g>
</svg>
