<?xml version="1.0" encoding="utf-8"?>
<!-- Generator: Adobe Illustrator 22.1.0, SVG Export Plug-In . SVG Version: 6.00 Build 0)  -->
<svg version="1.1" id="Calque_1" xmlns="http://www.w3.org/2000/svg" xmlns:xlink="http://www.w3.org/1999/xlink" x="0px" y="0px"
	 viewBox="0 0 341 394.1" style="enable-background:new 0 0 341 394.1;" xml:space="preserve">
<style type="text/css">
	.st0{fill:url(#SVGID_1_);}
	.st1{fill:url(#SVGID_2_);}
	.st2{fill:url(#SVGID_3_);}
	.st3{fill:url(#SVGID_4_);}
	.st4{fill:url(#SVGID_5_);}
</style>
<g>
	<linearGradient id="SVGID_1_" gradientUnits="userSpaceOnUse" x1="52.575" y1="78.425" x2="315.653" y2="341.5029">
		<stop  offset="0" style="stop-color:#8670CC"/>
		<stop  offset="0.9876" style="stop-color:#FF5E81"/>
	</linearGradient>
	<path class="st0" d="M171.4,0.4L0.9,98.8v196.9l170.5,98.4l170.5-98.4V98.8L171.4,0.4z M332.9,290.5l-161.5,93.2L9.9,290.5V104
		l161.5-93.2L332.9,104V290.5z"/>
	<linearGradient id="SVGID_2_" gradientUnits="userSpaceOnUse" x1="4.975" y1="126.025" x2="268.0529" y2="389.1029">
		<stop  offset="0" style="stop-color:#8670CC"/>
		<stop  offset="0.9876" style="stop-color:#FF5E81"/>
	</linearGradient>
	<path class="st1" d="M99.1,261.4h38.5c7.3,0,13.2-5.9,13.2-13.2v-17.6c0-7.3-5.9-13.2-13.2-13.2H99.1c-7.3,0-13.2,5.9-13.2,13.2
		v17.6C85.9,255.5,91.8,261.4,99.1,261.4z M92.9,230.6c0-3.4,2.8-6.2,6.2-6.2h38.5c3.4,0,6.2,2.8,6.2,6.2v17.6
		c0,3.4-2.8,6.2-6.2,6.2H99.1c-3.4,0-6.2-2.8-6.2-6.2V230.6z"/>
	<linearGradient id="SVGID_3_" gradientUnits="userSpaceOnUse" x1="47.4" y1="83.6" x2="310.4779" y2="346.6779">
		<stop  offset="0" style="stop-color:#8670CC"/>
		<stop  offset="0.9876" style="stop-color:#FF5E81"/>
	</linearGradient>
	<path class="st2" d="M161.4,210c2,0,3.5-1.6,3.5-3.5v-17.8c0-1.9-1.6-3.5-3.5-3.5c-1.9,0-3.5,1.6-3.5,3.5v17.8
		C157.9,208.4,159.5,210,161.4,210z"/>
	<linearGradient id="SVGID_4_" gradientUnits="userSpaceOnUse" x1="63.4" y1="67.6" x2="326.4779" y2="330.6779">
		<stop  offset="0" style="stop-color:#8670CC"/>
		<stop  offset="0.9876" style="stop-color:#FF5E81"/>
	</linearGradient>
	<path class="st3" d="M193.4,210c2,0,3.5-1.6,3.5-3.5v-17.8c0-1.9-1.6-3.5-3.5-3.5c-1.9,0-3.5,1.6-3.5,3.5v17.8
		C189.9,208.4,191.5,210,193.4,210z"/>
	<linearGradient id="SVGID_5_" gradientUnits="userSpaceOnUse" x1="43.5505" y1="87.4495" x2="306.6284" y2="350.5275">
		<stop  offset="0" style="stop-color:#8670CC"/>
		<stop  offset="0.9876" style="stop-color:#FF5E81"/>
	</linearGradient>
	<path class="st4" d="M131.4,133.3c-4.4-6.5-11.8-10.7-20.2-10.7c-13.5,0-24.4,11-24.4,24.4c0,7.2,3.1,13.6,8.1,18.1H82
		c-7.3,0-13.3,6-13.3,13.3v84.8c0,7.3,6,13.3,13.3,13.3h126.9c7.3,0,13.3-5.9,13.3-13.3v-17.1l53.4,29.7c0.5,0.3,1.1,0.4,1.7,0.4
		c0.7,0,1.3-0.2,1.9-0.6c1-0.6,1.7-1.8,1.7-3V170.2c0-1.2-0.6-2.4-1.7-3c-1.1-0.6-2.4-0.6-3.5,0l-53.5,29.6v-18.4
		c0-7.3-6-13.3-13.3-13.3h-21.8c9.3-6.4,15.4-17.2,15.4-29.3c0-19.6-16-35.6-35.6-35.6C148.1,100.2,132.7,114.9,131.4,133.3z
		 M93.9,147c0-9.5,7.7-17.3,17.3-17.3c9.5,0,17.3,7.8,17.3,17.3s-7.7,17.3-17.3,17.3C101.7,164.3,93.9,156.6,93.9,147z M273.8,176.3
		v90.4l-51.6-28.6v-33.2L273.8,176.3z M215.1,178.5v84.8c0,3.4-2.8,6.2-6.2,6.2H82c-3.4,0-6.2-2.8-6.2-6.2v-84.8
		c0-3.4,2.8-6.2,6.2-6.2l126.9,0C212.3,172.3,215.1,175.1,215.1,178.5z M127.5,165.1c3.8-3.4,6.5-8.1,7.6-13.3
		c2.7,5.3,6.7,9.9,11.6,13.3H127.5z M195.5,135.8c0,15.8-12.8,28.6-28.6,28.6c-15.8,0-28.6-12.8-28.6-28.6
		c0-15.8,12.8-28.6,28.6-28.6C182.7,107.2,195.5,120,195.5,135.8z"/>
</g>
</svg>
