<?xml version="1.0" encoding="utf-8"?>
<!-- Generator: Adobe Illustrator 22.1.0, SVG Export Plug-In . SVG Version: 6.00 Build 0)  -->
<svg version="1.1" id="Calque_1" xmlns="http://www.w3.org/2000/svg" xmlns:xlink="http://www.w3.org/1999/xlink" x="0px" y="0px"
	 viewBox="0 0 341 394.1" style="enable-background:new 0 0 341 394.1;" xml:space="preserve">
<style type="text/css">
	.st0{fill:url(#SVGID_1_);}
	.st1{fill:url(#SVGID_2_);}
	.st2{fill:url(#SVGID_3_);}
	.st3{fill:url(#SVGID_4_);}
</style>
<g>
	<linearGradient id="SVGID_1_" gradientUnits="userSpaceOnUse" x1="54.075" y1="79.925" x2="305.9926" y2="331.8427">
		<stop  offset="0" style="stop-color:#8670CC"/>
		<stop  offset="0.9876" style="stop-color:#FF5E81"/>
	</linearGradient>
	<path class="st0" d="M171.4,0.4L0.9,98.8v196.9l170.5,98.4l170.5-98.4V98.8L171.4,0.4z M332.9,290.5l-161.5,93.2L9.9,290.5V104
		l161.5-93.2L332.9,104V290.5z"/>
	<linearGradient id="SVGID_2_" gradientUnits="userSpaceOnUse" x1="54.1" y1="79.9" x2="306.0176" y2="331.8177">
		<stop  offset="0" style="stop-color:#8670CC"/>
		<stop  offset="0.9876" style="stop-color:#FF5E81"/>
	</linearGradient>
	<path class="st1" d="M110,114.9V101H75.2v34.8h13.9v122.8H75.2v34.8H110v-13.9h122.8v13.9h34.8v-34.8h-13.9V135.8h13.9V101h-34.8
		v13.9H110z M246.7,258.7h-13.9v13.9H110v-13.9H96.1V135.8H110v-13.9h122.8v13.9h13.9V258.7z"/>
	<linearGradient id="SVGID_3_" gradientUnits="userSpaceOnUse" x1="53.575" y1="80.425" x2="305.4926" y2="332.3427">
		<stop  offset="0" style="stop-color:#8670CC"/>
		<stop  offset="0.9876" style="stop-color:#FF5E81"/>
	</linearGradient>
	<path class="st2" d="M170.4,0.4L-0.1,98.8v196.9l170.5,98.4l170.5-98.4V98.8L170.4,0.4z M331.9,290.5l-161.5,93.2L8.9,290.5V104
		l161.5-93.2L331.9,104V290.5z"/>
	<linearGradient id="SVGID_4_" gradientUnits="userSpaceOnUse" x1="53.6" y1="80.4" x2="305.5176" y2="332.3177">
		<stop  offset="0" style="stop-color:#8670CC"/>
		<stop  offset="0.9876" style="stop-color:#FF5E81"/>
	</linearGradient>
	<path class="st3" d="M109,114.9V101H74.2v34.8h13.9v122.8H74.2v34.8H109v-13.9h122.8v13.9h34.8v-34.8h-13.9V135.8h13.9V101h-34.8
		v13.9H109z M245.7,258.7h-13.9v13.9H109v-13.9H95.1V135.8H109v-13.9h122.8v13.9h13.9V258.7z"/>
</g>
</svg>
