<svg xmlns="http://www.w3.org/2000/svg" viewBox="0 0 341 394.1"><path d="M171.4.4L.9 98.8v196.9l170.5 98.4 170.5-98.4V98.8L171.4.4zm161.5 290.1l-161.5 93.2L9.9 290.5V104l161.5-93.2L332.9 104v186.5z"/><path d="M110 114.9V101H75.2v34.8h13.9v122.8H75.2v34.8H110v-13.9h122.8v13.9h34.8v-34.8h-13.9V135.8h13.9V101h-34.8v13.9H110zm136.7 143.8h-13.9v13.9H110v-13.9H96.1V135.8H110v-13.9h122.8v13.9h13.9v122.9z"/><path d="M170.4.4L-.1 98.8v196.9l170.5 98.4 170.5-98.4V98.8L170.4.4zm161.5 290.1l-161.5 93.2L8.9 290.5V104l161.5-93.2L331.9 104v186.5z"/><path d="M109 114.9V101H74.2v34.8h13.9v122.8H74.2v34.8H109v-13.9h122.8v13.9h34.8v-34.8h-13.9V135.8h13.9V101h-34.8v13.9H109zm136.7 143.8h-13.9v13.9H109v-13.9H95.1V135.8H109v-13.9h122.8v13.9h13.9v122.9z"/></svg>