<?xml version="1.0" encoding="utf-8"?>
<!-- Generator: Adobe Illustrator 22.1.0, SVG Export Plug-In . SVG Version: 6.00 Build 0)  -->
<svg version="1.1" id="Calque_1" xmlns="http://www.w3.org/2000/svg" xmlns:xlink="http://www.w3.org/1999/xlink" x="0px" y="0px"
	 viewBox="0 0 341 394.1" style="enable-background:new 0 0 341 394.1;" xml:space="preserve">
<style type="text/css">
	.st0{fill:url(#SVGID_1_);}
	.st1{fill:url(#SVGID_2_);}
	.st2{fill:url(#SVGID_3_);}
	.st3{fill:url(#SVGID_4_);}
</style>
<g>
	<g>
		<linearGradient id="SVGID_1_" gradientUnits="userSpaceOnUse" x1="50.525" y1="77.475" x2="316.113" y2="343.063">
			<stop  offset="0" style="stop-color:#8670CC"/>
			<stop  offset="0.9876" style="stop-color:#FF5E81"/>
		</linearGradient>
		<path class="st0" d="M170.2,10.8L331.8,104v186.5l-161.5,93.2L8.8,290.5V104L170.2,10.8 M170.2,0.4L-0.2,98.8v196.9l170.5,98.4
			l170.5-98.4V98.8L170.2,0.4L170.2,0.4z"/>
	</g>
	<g>
		<linearGradient id="SVGID_2_" gradientUnits="userSpaceOnUse" x1="50.5094" y1="77.4906" x2="316.0974" y2="343.0786">
			<stop  offset="0" style="stop-color:#8670CC"/>
			<stop  offset="0.9876" style="stop-color:#FF5E81"/>
		</linearGradient>
		<path class="st1" d="M170.2,324.4c-70.1,0-127.2-57-127.2-127.2S100,70,170.2,70s127.2,57,127.2,127.2S240.4,324.4,170.2,324.4z
			 M170.2,77.1C104,77.1,50.1,131,50.1,197.2S104,317.4,170.2,317.4s120.2-53.9,120.2-120.2S236.5,77.1,170.2,77.1z"/>
	</g>
	<g>
		<linearGradient id="SVGID_3_" gradientUnits="userSpaceOnUse" x1="50.5" y1="77.5" x2="316.088" y2="343.088">
			<stop  offset="0" style="stop-color:#8670CC"/>
			<stop  offset="0.9876" style="stop-color:#FF5E81"/>
		</linearGradient>
		<path class="st2" d="M170.2,302.5c-0.8,0-1.5,0-2.3,0l0.2-7c1.9,0,3.9,0,5.8,0l0.3,7C172.9,302.4,171.6,302.5,170.2,302.5z
			 M161.8,302.1c-2-0.2-4.1-0.4-6.2-0.7l1-6.9c1.9,0.3,3.8,0.5,5.8,0.6L161.8,302.1z M180.4,302l-0.7-7c1.9-0.2,3.8-0.4,5.7-0.7
			l1.1,6.9C184.5,301.5,182.4,301.8,180.4,302z M149.5,300.4c-2-0.4-4.1-0.9-6-1.4l1.8-6.8c1.8,0.5,3.7,0.9,5.6,1.3L149.5,300.4z
			 M192.6,300.1l-1.5-6.8c1.9-0.4,3.8-0.9,5.6-1.4l1.9,6.7C196.7,299.1,194.6,299.6,192.6,300.1z M137.5,297.3
			c-2-0.6-3.9-1.4-5.8-2.1l2.6-6.5c1.8,0.7,3.6,1.4,5.5,2L137.5,297.3z M204.6,296.7l-2.3-6.6c1.8-0.6,3.6-1.3,5.4-2l2.7,6.5
			C208.5,295.3,206.5,296.1,204.6,296.7z M126,292.7c-1.9-0.9-3.7-1.8-5.6-2.8l3.3-6.2c1.7,0.9,3.4,1.8,5.2,2.6L126,292.7z M216,292
			l-3.1-6.3c1.7-0.8,3.5-1.7,5.1-2.7l3.4,6.1C219.7,290.1,217.9,291.1,216,292z M115,286.8c-1.8-1.1-3.5-2.2-5.2-3.4l4-5.7
			c1.6,1.1,3.2,2.2,4.8,3.2L115,286.8z M226.8,285.9L223,280c1.6-1,3.2-2.1,4.8-3.3l4.1,5.7C230.3,283.7,228.6,284.8,226.8,285.9z
			 M104.9,279.7c-1.6-1.3-3.2-2.6-4.7-4l4.7-5.2c1.4,1.3,2.9,2.5,4.4,3.7L104.9,279.7z M236.9,278.7l-4.4-5.4c1.5-1.2,3-2.5,4.4-3.8
			l4.7,5.1C240,276,238.5,277.4,236.9,278.7z M95.6,271.4c-1.5-1.5-2.9-3-4.2-4.5l5.2-4.6c1.3,1.4,2.6,2.9,4,4.2L95.6,271.4z
			 M246,270.3l-5-4.9c1.3-1.4,2.6-2.8,3.9-4.3l5.3,4.6C248.8,267.2,247.4,268.8,246,270.3z M87.4,262.1c-1.3-1.6-2.5-3.3-3.7-5
			l5.8-4c1.1,1.6,2.2,3.1,3.4,4.7L87.4,262.1z M254.1,260.8l-5.6-4.2c1.2-1.5,2.3-3.1,3.4-4.7l5.8,3.9
			C256.5,257.5,255.3,259.2,254.1,260.8z M80.4,251.9c-1.1-1.8-2.1-3.6-3.1-5.4l6.2-3.3c0.9,1.7,1.9,3.4,2.9,5L80.4,251.9z
			 M261,250.5l-6-3.6c1-1.7,1.9-3.4,2.8-5.1l6.2,3.2C263,246.9,262,248.8,261,250.5z M74.5,241c-0.9-1.9-1.7-3.8-2.4-5.7l6.5-2.5
			c0.7,1.8,1.4,3.6,2.2,5.3L74.5,241z M266.6,239.5l-6.4-2.8c0.8-1.8,1.5-3.6,2.2-5.4l6.6,2.4C268.2,235.7,267.5,237.6,266.6,239.5z
			 M70.1,229.4c-0.6-2-1.2-4-1.7-6l6.8-1.7c0.5,1.9,1,3.7,1.6,5.6L70.1,229.4z M270.9,227.8l-6.7-2c0.6-1.8,1.1-3.7,1.5-5.6l6.8,1.6
			C272.1,223.8,271.5,225.9,270.9,227.8z M67,217.4c-0.4-2-0.7-4.1-1-6.1l6.9-0.9c0.3,1.9,0.6,3.8,0.9,5.7L67,217.4z M273.8,215.8
			l-6.9-1.2c0.3-1.9,0.6-3.8,0.8-5.7l7,0.8C274.5,211.7,274.2,213.7,273.8,215.8z M65.3,205.1c-0.2-2-0.2-4.1-0.3-6.2l7-0.1
			c0,1.9,0.1,3.9,0.3,5.8L65.3,205.1z M275.3,203.4l-7-0.4c0.1-1.9,0.2-3.9,0.2-5.8c0-1.1,0-2.1,0-3.1l7-0.2c0,1.1,0.1,2.2,0.1,3.4
			C275.5,199.3,275.4,201.4,275.3,203.4z M72.1,193l-7-0.3c0.1-2.1,0.2-4.1,0.4-6.2l7,0.7C72.4,189.2,72.2,191.1,72.1,193z
			 M268.1,188.3c-0.2-1.9-0.4-3.9-0.7-5.7l6.9-1c0.3,2,0.6,4.1,0.7,6.2L268.1,188.3z M73.3,181.5l-6.9-1.1c0.3-2,0.7-4.1,1.2-6.1
			l6.8,1.5C74,177.7,73.6,179.6,73.3,181.5z M266.3,176.9c-0.4-1.9-0.9-3.8-1.4-5.6l6.8-1.8c0.5,2,1,4,1.5,6L266.3,176.9z
			 M75.8,170.2l-6.7-1.9c0.6-2,1.2-4,1.9-5.9l6.6,2.3C76.9,166.5,76.3,168.4,75.8,170.2z M263.3,165.7c-0.6-1.8-1.3-3.6-2-5.4
			l6.5-2.6c0.8,1.9,1.5,3.9,2.2,5.8L263.3,165.7z M79.7,159.3l-6.5-2.7c0.8-1.9,1.7-3.8,2.6-5.7l6.3,3.1
			C81.2,155.7,80.4,157.5,79.7,159.3z M258.9,155c-0.8-1.7-1.7-3.5-2.6-5.1l6.1-3.4c1,1.8,1.9,3.7,2.8,5.5L258.9,155z M84.8,148.9
			l-6.1-3.5c1-1.8,2.1-3.6,3.2-5.3l5.9,3.8C86.7,145.5,85.7,147.2,84.8,148.9z M253.3,144.9c-1-1.6-2.1-3.2-3.2-4.8l5.7-4.1
			c1.2,1.7,2.4,3.4,3.5,5.1L253.3,144.9z M91.1,139.2l-5.6-4.1c1.2-1.7,2.5-3.3,3.8-4.9l5.4,4.5C93.4,136.1,92.2,137.6,91.1,139.2z
			 M246.6,135.5c-1.2-1.5-2.5-3-3.8-4.4l5.2-4.7c1.4,1.5,2.8,3.1,4,4.7L246.6,135.5z M98.5,130.2l-5.1-4.8c1.4-1.5,2.9-3,4.4-4.4
			l4.8,5.1C101.1,127.5,99.8,128.8,98.5,130.2z M238.8,126.9c-1.4-1.3-2.8-2.7-4.3-3.9l4.6-5.3c1.6,1.4,3.1,2.8,4.6,4.2L238.8,126.9
			z M106.8,122.3l-4.5-5.3c1.6-1.3,3.2-2.6,4.8-3.9l4.2,5.6C109.8,119.8,108.3,121,106.8,122.3z M230,119.3
			c-1.5-1.2-3.1-2.3-4.7-3.4l3.9-5.8c1.7,1.2,3.4,2.4,5,3.6L230,119.3z M116.1,115.3l-3.9-5.8c1.7-1.1,3.5-2.2,5.3-3.3l3.5,6.1
			C119.4,113.2,117.7,114.2,116.1,115.3z M220.4,112.8c-1.6-1-3.4-1.9-5.1-2.8l3.2-6.2c1.8,1,3.7,2,5.4,3L220.4,112.8z M126.1,109.5
			l-3.2-6.2c1.8-0.9,3.7-1.8,5.6-2.6l2.8,6.4C129.6,107.8,127.8,108.6,126.1,109.5z M210.2,107.5c-1.8-0.8-3.6-1.5-5.4-2.2l2.5-6.6
			c1.9,0.7,3.9,1.5,5.8,2.4L210.2,107.5z M136.7,104.9l-2.4-6.6c1.9-0.7,3.9-1.4,5.9-1.9l2,6.7C140.4,103.7,138.5,104.3,136.7,104.9
			z M199.3,103.4c-1.8-0.6-3.7-1.1-5.6-1.5l1.7-6.8c2,0.5,4,1,6,1.7L199.3,103.4z M147.8,101.6l-1.6-6.8c2-0.5,4-0.9,6.1-1.2
			l1.2,6.9C151.6,100.8,149.7,101.2,147.8,101.6z M188.1,100.7c-1.9-0.3-3.8-0.6-5.7-0.9l0.9-6.9c2.1,0.3,4.1,0.6,6.1,0.9
			L188.1,100.7z M159.2,99.7l-0.8-7c2-0.2,4.1-0.4,6.2-0.5l0.4,7C163.1,99.3,161.1,99.4,159.2,99.7z M176.6,99.2
			c-1.9-0.1-3.9-0.2-5.8-0.2v-7c2.1,0,4.1,0.1,6.2,0.2L176.6,99.2z"/>
	</g>
	<g>
		<linearGradient id="SVGID_4_" gradientUnits="userSpaceOnUse" x1="47.875" y1="80.125" x2="313.463" y2="345.713">
			<stop  offset="0" style="stop-color:#8670CC"/>
			<stop  offset="0.9876" style="stop-color:#FF5E81"/>
		</linearGradient>
		<path class="st3" d="M215.8,259.9L170.2,236l-45.5,23.9l8.7-50.7l-36.8-35.9l50.9-7.4l22.8-46.1l22.8,46.1l50.9,7.4l-36.8,35.9
			L215.8,259.9z M170.2,228.1l36.2,19.1l-6.9-40.4l29.3-28.6l-40.5-5.9l-18.1-36.7l-18.1,36.7l-40.5,5.9l29.3,28.6l-6.9,40.4
			L170.2,228.1z"/>
	</g>
</g>
</svg>
