<svg xmlns="http://www.w3.org/2000/svg" viewBox="0 0 341 441.7"><path fill="#fff" d="M171.4.4L.9 98.8v196.9l170.5 98.4 170.5-98.4V98.8L171.4.4zm161.5 290.1l-161.5 93.2L9.9 290.5V104l161.5-93.2L332.9 104v186.5zM248 425c-3.7 6.2-7.3 12-14 12s-10.2-5.8-14-12c-3.9-6.5-8.4-14-17.4-14-9 0-13.4 7.4-17.4 14-3.7 6.2-7.2 12-14 12s-10.2-5.8-14-12c-3.9-6.5-8.4-14-17.4-14-9 0-13.4 7.4-17.4 14-3.7 6.2-7.2 12-14 12-6.7 0-10.2-5.8-14-12-3.9-6.5-8.4-14-17.4-14v4c6.7 0 10.2 5.8 14 12 3.9 6.5 8.4 14 17.4 14s13.4-7.4 17.4-14c3.7-6.2 7.2-12 14-12 6.7 0 10.2 5.8 14 12 3.9 6.5 8.4 14 17.4 14 9 0 13.4-7.4 17.4-14 3.7-6.2 7.2-12 14-12 6.7 0 10.2 5.8 14 12 3.9 6.5 8.4 14 17.4 14 9 0 13.4-7.4 17.4-14 3.7-6.2 7.3-12 14-12v-4c-8.9 0-13.4 7.4-17.4 14z"/><path fill="#fff" d="M110 114.9V101H75.2v34.8h13.9v122.8H75.2v34.8H110v-13.9h122.8v13.9h34.8v-34.8h-13.9V135.8h13.9V101h-34.8v13.9H110zm136.7 143.8h-13.9v13.9H110v-13.9H96.1V135.8H110v-13.9h122.8v13.9h13.9v122.9z"/><g><path fill="#fff" d="M170.4.4L-.1 98.8v196.9l170.5 98.4 170.5-98.4V98.8L170.4.4zm161.5 290.1l-161.5 93.2L8.9 290.5V104l161.5-93.2L331.9 104v186.5zM247 425c-3.7 6.2-7.3 12-14 12s-10.2-5.8-14-12c-3.9-6.5-8.4-14-17.4-14-9 0-13.4 7.4-17.4 14-3.7 6.2-7.2 12-14 12s-10.2-5.8-14-12c-3.9-6.5-8.4-14-17.4-14-9 0-13.4 7.4-17.4 14-3.7 6.2-7.2 12-14 12-6.7 0-10.2-5.8-14-12-3.9-6.5-8.4-14-17.4-14v4c6.7 0 10.2 5.8 14 12 3.9 6.5 8.4 14 17.4 14s13.4-7.4 17.4-14c3.7-6.2 7.2-12 14-12 6.7 0 10.2 5.8 14 12 3.9 6.5 8.4 14 17.4 14 9 0 13.4-7.4 17.4-14 3.7-6.2 7.2-12 14-12 6.7 0 10.2 5.8 14 12 3.9 6.5 8.4 14 17.4 14 9 0 13.4-7.4 17.4-14 3.7-6.2 7.3-12 14-12v-4c-8.9 0-13.4 7.4-17.4 14z"/><path fill="#fff" d="M109 114.9V101H74.2v34.8h13.9v122.8H74.2v34.8H109v-13.9h122.8v13.9h34.8v-34.8h-13.9V135.8h13.9V101h-34.8v13.9H109zm136.7 143.8h-13.9v13.9H109v-13.9H95.1V135.8H109v-13.9h122.8v13.9h13.9v122.9z"/></g></svg>
