<svg xmlns="http://www.w3.org/2000/svg" viewBox="0 0 341 441.7"><path fill="#000" d="M170.2 10.8L331.8 104v186.5l-161.5 93.2L8.8 290.5V104l161.4-93.2m0-10.4L-.2 98.8v196.9l170.5 98.4 170.5-98.4V98.8L170.2.4z"/><path fill="#000" d="M170.2 324.4c-70.1 0-127.2-57-127.2-127.2S100 70 170.2 70s127.2 57 127.2 127.2-57 127.2-127.2 127.2zm0-247.3C104 77.1 50.1 131 50.1 197.2S104 317.4 170.2 317.4s120.2-53.9 120.2-120.2S236.5 77.1 170.2 77.1z"/><path fill="#000" d="M170.2 302.5h-2.3l.2-7h5.8l.3 7c-1.3-.1-2.6 0-4 0zm-8.4-.4c-2-.2-4.1-.4-6.2-.7l1-6.9c1.9.3 3.8.5 5.8.6l-.6 7zm18.6-.1l-.7-7c1.9-.2 3.8-.4 5.7-.7l1.1 6.9c-2 .3-4.1.6-6.1.8zm-30.9-1.6c-2-.4-4.1-.9-6-1.4l1.8-6.8c1.8.5 3.7.9 5.6 1.3l-1.4 6.9zm43.1-.3l-1.5-6.8c1.9-.4 3.8-.9 5.6-1.4l1.9 6.7c-1.9.5-4 1-6 1.5zm-55.1-2.8c-2-.6-3.9-1.4-5.8-2.1l2.6-6.5c1.8.7 3.6 1.4 5.5 2l-2.3 6.6zm67.1-.6l-2.3-6.6c1.8-.6 3.6-1.3 5.4-2l2.7 6.5c-1.9.7-3.9 1.5-5.8 2.1zm-78.6-4c-1.9-.9-3.7-1.8-5.6-2.8l3.3-6.2c1.7.9 3.4 1.8 5.2 2.6l-2.9 6.4zm90-.7l-3.1-6.3c1.7-.8 3.5-1.7 5.1-2.7l3.4 6.1c-1.7 1-3.5 2-5.4 2.9zm-101-5.2c-1.8-1.1-3.5-2.2-5.2-3.4l4-5.7c1.6 1.1 3.2 2.2 4.8 3.2l-3.6 5.9zm111.8-.9L223 280c1.6-1 3.2-2.1 4.8-3.3l4.1 5.7c-1.6 1.3-3.3 2.4-5.1 3.5zm-121.9-6.2c-1.6-1.3-3.2-2.6-4.7-4l4.7-5.2c1.4 1.3 2.9 2.5 4.4 3.7l-4.4 5.5zm132-1l-4.4-5.4c1.5-1.2 3-2.5 4.4-3.8l4.7 5.1c-1.6 1.4-3.1 2.8-4.7 4.1zm-141.3-7.3c-1.5-1.5-2.9-3-4.2-4.5l5.2-4.6c1.3 1.4 2.6 2.9 4 4.2l-5 4.9zm150.4-1.1l-5-4.9c1.3-1.4 2.6-2.8 3.9-4.3l5.3 4.6c-1.4 1.5-2.8 3.1-4.2 4.6zm-158.6-8.2c-1.3-1.6-2.5-3.3-3.7-5l5.8-4c1.1 1.6 2.2 3.1 3.4 4.7l-5.5 4.3zm166.7-1.3l-5.6-4.2c1.2-1.5 2.3-3.1 3.4-4.7l5.8 3.9c-1.2 1.7-2.4 3.4-3.6 5zm-173.7-8.9c-1.1-1.8-2.1-3.6-3.1-5.4l6.2-3.3c.9 1.7 1.9 3.4 2.9 5l-6 3.7zm180.6-1.4l-6-3.6c1-1.7 1.9-3.4 2.8-5.1l6.2 3.2c-1 1.9-2 3.8-3 5.5zM74.5 241c-.9-1.9-1.7-3.8-2.4-5.7l6.5-2.5c.7 1.8 1.4 3.6 2.2 5.3l-6.3 2.9zm192.1-1.5l-6.4-2.8c.8-1.8 1.5-3.6 2.2-5.4l6.6 2.4c-.8 2-1.5 3.9-2.4 5.8zM70.1 229.4c-.6-2-1.2-4-1.7-6l6.8-1.7c.5 1.9 1 3.7 1.6 5.6l-6.7 2.1zm200.8-1.6l-6.7-2c.6-1.8 1.1-3.7 1.5-5.6l6.8 1.6c-.4 2-1 4.1-1.6 6zM67 217.4c-.4-2-.7-4.1-1-6.1l6.9-.9.9 5.7-6.8 1.3zm206.8-1.6l-6.9-1.2c.3-1.9.6-3.8.8-5.7l7 .8c-.2 2-.5 4-.9 6.1zM65.3 205.1c-.2-2-.2-4.1-.3-6.2l7-.1c0 1.9.1 3.9.3 5.8l-7 .5zm210-1.7l-7-.4c.1-1.9.2-3.9.2-5.8v-3.1l7-.2c0 1.1.1 2.2.1 3.4-.1 2-.2 4.1-.3 6.1zM72.1 193l-7-.3c.1-2.1.2-4.1.4-6.2l7 .7c-.1 2-.3 3.9-.4 5.8zm196-4.7c-.2-1.9-.4-3.9-.7-5.7l6.9-1c.3 2 .6 4.1.7 6.2l-6.9.5zm-194.8-6.8l-6.9-1.1c.3-2 .7-4.1 1.2-6.1l6.8 1.5c-.4 1.9-.8 3.8-1.1 5.7zm193-4.6c-.4-1.9-.9-3.8-1.4-5.6l6.8-1.8 1.5 6-6.9 1.4zm-190.5-6.7l-6.7-1.9c.6-2 1.2-4 1.9-5.9l6.6 2.3c-.7 1.8-1.3 3.7-1.8 5.5zm187.5-4.5c-.6-1.8-1.3-3.6-2-5.4l6.5-2.6c.8 1.9 1.5 3.9 2.2 5.8l-6.7 2.2zm-183.6-6.4l-6.5-2.7c.8-1.9 1.7-3.8 2.6-5.7l6.3 3.1c-.9 1.7-1.7 3.5-2.4 5.3zm179.2-4.3c-.8-1.7-1.7-3.5-2.6-5.1l6.1-3.4c1 1.8 1.9 3.7 2.8 5.5l-6.3 3zm-174.1-6.1l-6.1-3.5c1-1.8 2.1-3.6 3.2-5.3l5.9 3.8c-1.1 1.6-2.1 3.3-3 5zm168.5-4c-1-1.6-2.1-3.2-3.2-4.8l5.7-4.1c1.2 1.7 2.4 3.4 3.5 5.1l-6 3.8zm-162.2-5.7l-5.6-4.1c1.2-1.7 2.5-3.3 3.8-4.9l5.4 4.5c-1.3 1.4-2.5 2.9-3.6 4.5zm155.5-3.7c-1.2-1.5-2.5-3-3.8-4.4l5.2-4.7c1.4 1.5 2.8 3.1 4 4.7l-5.4 4.4zm-148.1-5.3l-5.1-4.8c1.4-1.5 2.9-3 4.4-4.4l4.8 5.1c-1.5 1.4-2.8 2.7-4.1 4.1zm140.3-3.3c-1.4-1.3-2.8-2.7-4.3-3.9l4.6-5.3c1.6 1.4 3.1 2.8 4.6 4.2l-4.9 5zm-132-4.6l-4.5-5.3 4.8-3.9 4.2 5.6c-1.5 1.1-3 2.3-4.5 3.6zm123.2-3c-1.5-1.2-3.1-2.3-4.7-3.4l3.9-5.8c1.7 1.2 3.4 2.4 5 3.6l-4.2 5.6zm-113.9-4l-3.9-5.8c1.7-1.1 3.5-2.2 5.3-3.3l3.5 6.1c-1.6.9-3.3 1.9-4.9 3zm104.3-2.5c-1.6-1-3.4-1.9-5.1-2.8l3.2-6.2c1.8 1 3.7 2 5.4 3l-3.5 6zm-94.3-3.3l-3.2-6.2c1.8-.9 3.7-1.8 5.6-2.6l2.8 6.4c-1.7.7-3.5 1.5-5.2 2.4zm84.1-2c-1.8-.8-3.6-1.5-5.4-2.2l2.5-6.6c1.9.7 3.9 1.5 5.8 2.4l-2.9 6.4zm-73.5-2.6l-2.4-6.6c1.9-.7 3.9-1.4 5.9-1.9l2 6.7c-1.8.6-3.7 1.2-5.5 1.8zm62.6-1.5c-1.8-.6-3.7-1.1-5.6-1.5l1.7-6.8c2 .5 4 1 6 1.7l-2.1 6.6zm-51.5-1.8l-1.6-6.8c2-.5 4-.9 6.1-1.2l1.2 6.9c-1.9.3-3.8.7-5.7 1.1zm40.3-.9l-5.7-.9.9-6.9c2.1.3 4.1.6 6.1.9l-1.3 6.9zm-28.9-1l-.8-7c2-.2 4.1-.4 6.2-.5l.4 7c-1.9.1-3.9.2-5.8.5zm17.4-.5c-1.9-.1-3.9-.2-5.8-.2v-7c2.1 0 4.1.1 6.2.2l-.4 7zM231.7 441c-9 0-13.4-7.4-17.4-14-3.7-6.2-7.3-12-14-12s-10.2 5.8-14 12c-3.9 6.5-8.4 14-17.4 14-9 0-13.4-7.4-17.4-14-3.7-6.2-7.3-12-14-12s-10.2 5.8-14 12c-3.9 6.5-8.4 14-17.4 14-9 0-13.4-7.4-17.4-14-3.7-6.2-7.2-12-14-12v-4c9 0 13.4 7.4 17.4 14 3.7 6.2 7.2 12 14 12s10.2-5.8 14-12c3.9-6.5 8.4-14 17.4-14 9 0 13.4 7.4 17.4 14 3.7 6.2 7.3 12 14 12s10.2-5.8 14-12c3.9-6.5 8.4-14 17.4-14 9 0 13.4 7.4 17.4 14 3.7 6.2 7.3 12 14 12s10.2-5.8 14-12c3.9-6.5 8.4-14 17.4-14v4c-6.7 0-10.2 5.8-14 12-4 6.6-8.5 14-17.4 14zM215.8 259.9L170.2 236l-45.5 23.9 8.7-50.7-36.8-35.9 50.9-7.4 22.8-46.1 22.8 46.1 50.9 7.4-36.8 35.9 8.6 50.7zm-45.6-31.8l36.2 19.1-6.9-40.4 29.3-28.6-40.5-5.9-18.1-36.7-18.1 36.7-40.5 5.9 29.3 28.6-6.9 40.4 36.2-19.1z"/></svg>
