<svg xmlns="http://www.w3.org/2000/svg" viewBox="0 0 341 441.7"><path fill="#000" d="M171.4 10.8L332.9 104v186.5l-161.5 93.2L9.9 290.5V104l161.5-93.2m0-10.4L.9 98.8v196.9l170.5 98.4 170.5-98.4V98.8L171.4.4zM234.1 441c-9 0-13.4-7.4-17.4-14-3.7-6.2-7.3-12-14-12s-10.2 5.8-14 12c-3.9 6.5-8.4 14-17.4 14-9 0-13.4-7.4-17.4-14-3.7-6.2-7.3-12-14-12s-10.2 5.8-14 12c-3.9 6.5-8.4 14-17.4 14s-13.4-7.4-17.4-14c-3.7-6.2-7.2-12-14-12v-4c9 0 13.4 7.4 17.4 14 3.7 6.2 7.2 12 14 12 6.7 0 10.2-5.8 14-12 3.9-6.5 8.4-14 17.4-14 9 0 13.4 7.4 17.4 14 3.7 6.2 7.3 12 14 12s10.2-5.8 14-12c3.9-6.5 8.4-14 17.4-14 9 0 13.4 7.4 17.4 14 3.7 6.2 7.3 12 14 12s10.2-5.8 14-12c3.9-6.5 8.4-14 17.4-14v4c-6.7 0-10.2 5.8-14 12-4 6.6-8.5 14-17.4 14z"/><path fill="#000" d="M208.9 276.5H82c-7.3 0-13.3-6-13.3-13.3v-84.8c0-7.3 6-13.3 13.3-13.3h126.9c7.3 0 13.3 6 13.3 13.3v84.8c0 7.4-6 13.3-13.3 13.3zM82 172.3c-3.4 0-6.2 2.8-6.2 6.2v84.8c0 3.4 2.8 6.2 6.2 6.2h126.9c3.4 0 6.2-2.8 6.2-6.2v-84.8c0-3.4-2.8-6.2-6.2-6.2H82z"/><path fill="#000" d="M137.6 261.4H99.1c-7.3 0-13.2-5.9-13.2-13.2v-17.6c0-7.3 5.9-13.2 13.2-13.2h38.5c7.3 0 13.2 5.9 13.2 13.2v17.6c0 7.3-5.9 13.2-13.2 13.2zm-38.5-37c-3.4 0-6.2 2.8-6.2 6.2v17.6c0 3.4 2.8 6.2 6.2 6.2h38.5c3.4 0 6.2-2.8 6.2-6.2v-17.6c0-3.4-2.8-6.2-6.2-6.2H99.1zM161.4 210c-1.9 0-3.5-1.6-3.5-3.5v-17.8c0-1.9 1.6-3.5 3.5-3.5s3.5 1.6 3.5 3.5v17.8c0 1.9-1.5 3.5-3.5 3.5zM193.4 210c-1.9 0-3.5-1.6-3.5-3.5v-17.8c0-1.9 1.6-3.5 3.5-3.5s3.5 1.6 3.5 3.5v17.8c0 1.9-1.5 3.5-3.5 3.5zM111.2 171.4c-13.4 0-24.4-10.9-24.4-24.4 0-13.4 10.9-24.4 24.4-24.4 13.4 0 24.4 10.9 24.4 24.4 0 13.5-11 24.4-24.4 24.4zm0-41.7c-9.6 0-17.3 7.8-17.3 17.3 0 9.6 7.8 17.3 17.3 17.3 9.6 0 17.3-7.8 17.3-17.3s-7.8-17.3-17.3-17.3z"/><path fill="#000" d="M166.9 171.4c-19.6 0-35.6-16-35.6-35.6s16-35.6 35.6-35.6 35.6 16 35.6 35.6-16 35.6-35.6 35.6zm0-64.2c-15.8 0-28.6 12.8-28.6 28.6s12.8 28.6 28.6 28.6 28.6-12.8 28.6-28.6-12.8-28.6-28.6-28.6zM277.3 276.2c-.6 0-1.2-.1-1.7-.4L217 243.2c-1.1-.6-1.8-1.8-1.8-3.1v-37.3c0-1.3.7-2.5 1.8-3.1l58.7-32.5c1.1-.6 2.4-.6 3.5 0s1.7 1.8 1.7 3v102.4c0 1.2-.7 2.4-1.7 3-.6.4-1.2.6-1.9.6zm-55.1-38.1l51.6 28.6v-90.4l-51.6 28.6v33.2z"/></svg>
