<svg xmlns="http://www.w3.org/2000/svg" viewBox="0 0 341 393.7"><title>Fichier 1</title><g id="Calque_2" data-name="Calque 2"><g id="Calque_1-2" data-name="Calque 1"><path d="M170.5,0,0,98.4V295.3l170.5,98.4L341,295.3V98.4ZM332,290.1,170.5,383.3,9,290.1V103.6L170.5,10.4,332,103.6Z"/><path d="M73,267.4a30,30,0,1,0,30-30A30,30,0,0,0,73,267.4Zm30-23a23,23,0,1,1-23,23A23,23,0,0,1,103,244.4ZM85.5,160.9,103,143.3l17.5,17.6,5-5L108,138.4l17.5-17.5-5-5L103,133.4,85.5,115.9l-5,5L98,138.4,80.5,155.9Zm178,84L246,262.4l-17.5-17.5-5,5,17.6,17.5-17.6,17.5,5,5L246,272.3l17.5,17.6,5-5L251,267.4l17.5-17.5Z"/><path d="M242.5,111.2v85.7H99.5v40.5h7V203.9h143V111.1L278,131.2l4-5.7-36-25.4-35.1,25.4,4.2,5.7Z"/></g></g></svg>