<svg xmlns="http://www.w3.org/2000/svg" viewBox="0 0 341 441.7"><path fill="#fff" d="M170.5 0L0 98.4v196.9l170.5 98.4L341 295.3V98.4L170.5 0zM332 290.1l-161.5 93.2L9 290.1V103.6l161.5-93.2L332 103.6v186.5z"/><path fill="#fff" d="M73 267.4c0 16.6 13.4 30 30 30s30-13.4 30-30-13.4-30-30-30-30 13.4-30 30zm30-23c12.7 0 23 10.3 23 23s-10.3 23-23 23-23-10.3-23-23 10.3-23 23-23zm-17.5-83.5l17.5-17.6 17.5 17.6 5-5-17.5-17.5 17.5-17.5-5-5-17.5 17.5-17.5-17.5-5 5L98 138.4l-17.5 17.5zm178 84L246 262.4l-17.5-17.5-5 5 17.6 17.5-17.6 17.5 5 5 17.5-17.6 17.5 17.6 5-5-17.5-17.5 17.5-17.5z"/><path fill="#fff" d="M242.5 111.2v85.7h-143v40.5h7v-33.5h143v-92.8l28.5 20.1 4-5.7-36-25.4-35.1 25.4 4.2 5.7zm4.1 314.1c-3.7 6.2-7.3 12-14 12s-10.2-5.8-14-12c-3.9-6.5-8.4-14-17.4-14-9 0-13.4 7.4-17.4 14-3.7 6.2-7.2 12-14 12s-10.2-5.8-14-12c-3.9-6.5-8.4-14-17.4-14-9 0-13.4 7.4-17.4 14-3.7 6.2-7.2 12-14 12s-10.2-5.8-14-12c-3.9-6.5-8.4-14-17.4-14v4c6.7 0 10.2 5.8 14 12 3.9 6.5 8.4 14 17.4 14 9 0 13.4-7.4 17.4-14 3.7-6.2 7.2-12 14-12s10.2 5.8 14 12c3.9 6.5 8.4 14 17.4 14 9 0 13.4-7.4 17.4-14 3.7-6.2 7.2-12 14-12 6.7 0 10.2 5.8 14 12 3.9 6.5 8.4 14 17.4 14 9 0 13.4-7.4 17.4-14 3.7-6.2 7.3-12 14-12v-4c-9 .1-13.4 7.5-17.4 14z"/></svg>
