<svg xmlns="http://www.w3.org/2000/svg" viewBox="0 0 519.6 600"><path d="M259.8 600L0 450V150L259.8 0l259.8 150v300L259.8 600zM15.4 441.1l244.4 141.1 244.4-141.1V158.9L259.8 17.7 15.4 158.9v282.2z"/><g><path d="M194.9 441.9c131.7 0 203.8-109.3 203.8-203.8 0-3.1 0-6.1-.1-9.2 14-10.1 26.1-22.8 35.8-37.2-12.9 5.7-26.7 9.5-41.2 11.3 14.8-8.8 26.1-22.9 31.6-39.7-13.8 8.2-29.2 14.1-45.5 17.3-13.1-14-31.7-22.6-52.3-22.6-39.5 0-71.7 32.1-71.7 71.7 0 5.6.7 11 1.8 16.3-59.5-2.9-112.3-31.6-147.7-74.9-6.1 10.6-9.6 22.9-9.6 36 0 24.9 12.7 46.8 31.9 59.7-11.7-.4-22.8-3.6-32.4-8.9v1c0 34.6 24.7 63.7 57.4 70.3-6 1.7-12.3 2.5-18.9 2.5-4.6 0-9.1-.4-13.4-1.3 9.1 28.5 35.6 49.2 66.9 49.7-24.6 19.3-55.5 30.7-89 30.7-5.7 0-11.5-.3-17-1 31.5 20.3 69.2 32.1 109.6 32.1"/></g></svg>
