<svg xmlns="http://www.w3.org/2000/svg" viewBox="0 0 341 441.7"><path fill="#fff" d="M171.4.4L.9 98.8v196.9l170.5 98.4 170.5-98.4V98.8L171.4.4zm161.5 290.1l-161.5 93.2L9.9 290.5V104l161.5-93.2L332.9 104v186.5zM248 425c-3.7 6.2-7.3 12-14 12s-10.2-5.8-14-12c-3.9-6.5-8.4-14-17.4-14-9 0-13.4 7.4-17.4 14-3.7 6.2-7.2 12-14 12s-10.2-5.8-14-12c-3.9-6.5-8.4-14-17.4-14-9 0-13.4 7.4-17.4 14-3.7 6.2-7.2 12-14 12-6.7 0-10.2-5.8-14-12-3.9-6.5-8.4-14-17.4-14v4c6.7 0 10.2 5.8 14 12 3.9 6.5 8.4 14 17.4 14s13.4-7.4 17.4-14c3.7-6.2 7.2-12 14-12 6.7 0 10.2 5.8 14 12 3.9 6.5 8.4 14 17.4 14 9 0 13.4-7.4 17.4-14 3.7-6.2 7.2-12 14-12 6.7 0 10.2 5.8 14 12 3.9 6.5 8.4 14 17.4 14 9 0 13.4-7.4 17.4-14 3.7-6.2 7.3-12 14-12v-4c-8.9 0-13.4 7.4-17.4 14z"/><path fill="#fff" d="M241.7 283.5c2 0 3.6-1.6 3.6-3.6s-1.6-3.6-3.6-3.6-3.6 1.6-3.6 3.6 1.6 3.6 3.6 3.6zM62 249.9c-2 0-3.6 1.6-3.6 3.6s1.6 3.6 3.6 3.6 3.6-1.6 3.6-3.6c-.1-2-1.7-3.6-3.6-3.6z"/><path fill="#fff" d="M62 213.6H45v79.9h164.3V277h-14.7l-4.2-29.4h23.3v45.8h56.1v-45.8h11.1V114.8H62v98.8zm-10.1 72.8v-65.9h103.4v19.8h-.1V283h.1v3.4H51.9zm150.3 0h-39.9V284h39.9v2.4zM187 275.7h-24.6v-28.1H183l4 28.1zm75.8 10.7h-42.1v-66.1h42.1v66.1zM273.6 122v118.3h-3.9v-27.1h-56.1v27.1h-51.3v-26.8H69.2V122h204.4z"/></svg>
